<mxfile host="Electron" agent="Mozilla/5.0 (Windows NT 10.0; Win64; x64) AppleWebKit/537.36 (KHTML, like Gecko) draw.io/28.0.6 Chrome/138.0.7204.100 Electron/37.2.3 Safari/537.36" version="28.0.6">
  <diagram name="Page-1" id="bLeAEsV4SSS4e_z-g5ne">
    <mxGraphModel dx="2194" dy="1294" grid="1" gridSize="10" guides="1" tooltips="1" connect="1" arrows="1" fold="1" page="1" pageScale="1" pageWidth="2000" pageHeight="1200" math="0" shadow="0">
      <root>
        <mxCell id="0" />
        <mxCell id="1" parent="0" />
        <mxCell id="y37aQI1pMhycL6i3dEIS-22" value="" style="rounded=1;whiteSpace=wrap;html=1;arcSize=3;" parent="1" vertex="1">
          <mxGeometry x="335" y="830" width="1330" height="860" as="geometry" />
        </mxCell>
        <mxCell id="70dgQCnBZzy21_fuu8-h-3" value="" style="rounded=0;whiteSpace=wrap;html=1;dashed=1;fillColor=none;fontColor=#ffffff;strokeColor=light-dark(#001DBC,#FFFFFF);dashPattern=8 8;" parent="1" vertex="1">
          <mxGeometry x="435" y="1064" width="240" height="520" as="geometry" />
        </mxCell>
        <mxCell id="70dgQCnBZzy21_fuu8-h-4" value="&lt;font style=&quot;font-size: 24px;&quot;&gt;Sources&lt;/font&gt;" style="rounded=1;whiteSpace=wrap;html=1;dashed=1;dashPattern=8 8;arcSize=50;strokeColor=none;fillColor=#666666;" parent="1" vertex="1">
          <mxGeometry x="475" y="1042" width="160" height="46" as="geometry" />
        </mxCell>
        <mxCell id="70dgQCnBZzy21_fuu8-h-9" value="" style="rounded=1;whiteSpace=wrap;html=1;fillColor=none;strokeColor=light-dark(#d6b656, #ffe79f);gradientColor=#ffd966;strokeWidth=2;" parent="1" vertex="1">
          <mxGeometry x="735" y="1064" width="240" height="530" as="geometry" />
        </mxCell>
        <mxCell id="70dgQCnBZzy21_fuu8-h-12" value="&lt;font style=&quot;font-size: 24px; color: rgb(0, 0, 0);&quot;&gt;&lt;b&gt;Bronze Layer&lt;/b&gt;&lt;/font&gt;" style="rounded=1;whiteSpace=wrap;html=1;dashed=1;fillColor=#fff2cc;strokeColor=#d6b656;dashPattern=8 8;gradientColor=#ffd966;" parent="1" vertex="1">
          <mxGeometry x="735" y="1002" width="240" height="40" as="geometry" />
        </mxCell>
        <mxCell id="70dgQCnBZzy21_fuu8-h-15" value="CRM" style="group" parent="1" vertex="1" connectable="0">
          <mxGeometry x="521" y="1174" width="86.47" height="70" as="geometry" />
        </mxCell>
        <mxCell id="70dgQCnBZzy21_fuu8-h-16" value="&lt;b&gt;&lt;font style=&quot;font-size: 24px;&quot;&gt;CRM&lt;/font&gt;&lt;/b&gt;" style="image;aspect=fixed;html=1;points=[];align=center;fontSize=12;image=img/lib/azure2/general/Folder_Blank.svg;" parent="70dgQCnBZzy21_fuu8-h-15" vertex="1">
          <mxGeometry width="69" height="56.00000000000001" as="geometry" />
        </mxCell>
        <mxCell id="70dgQCnBZzy21_fuu8-h-17" value="" style="image;aspect=fixed;html=1;points=[];align=center;fontSize=12;image=img/lib/azure2/general/File.svg;" parent="70dgQCnBZzy21_fuu8-h-15" vertex="1">
          <mxGeometry x="58" y="25" width="32.47" height="40" as="geometry" />
        </mxCell>
        <mxCell id="70dgQCnBZzy21_fuu8-h-18" value="CRM" style="group" parent="1" vertex="1" connectable="0">
          <mxGeometry x="521" y="1405" width="86.47" height="70" as="geometry" />
        </mxCell>
        <mxCell id="70dgQCnBZzy21_fuu8-h-19" value="&lt;b&gt;&lt;font style=&quot;font-size: 24px;&quot;&gt;ERP&lt;/font&gt;&lt;/b&gt;" style="image;aspect=fixed;html=1;points=[];align=center;fontSize=12;image=img/lib/azure2/general/Folder_Blank.svg;" parent="70dgQCnBZzy21_fuu8-h-18" vertex="1">
          <mxGeometry width="69" height="56.00000000000001" as="geometry" />
        </mxCell>
        <mxCell id="70dgQCnBZzy21_fuu8-h-20" value="" style="image;aspect=fixed;html=1;points=[];align=center;fontSize=12;image=img/lib/azure2/general/File.svg;" parent="70dgQCnBZzy21_fuu8-h-18" vertex="1">
          <mxGeometry x="55" y="25" width="32.47" height="40" as="geometry" />
        </mxCell>
        <mxCell id="70dgQCnBZzy21_fuu8-h-49" value="&lt;div&gt;&lt;font&gt;&lt;b&gt;DATA FLOW DIAGRAM&lt;/b&gt;&lt;/font&gt;&lt;/div&gt;" style="text;whiteSpace=wrap;html=1;fillColor=none;align=center;fontStyle=4;fontSize=50;" parent="1" vertex="1">
          <mxGeometry x="720" y="880" width="560" height="70" as="geometry" />
        </mxCell>
        <mxCell id="y37aQI1pMhycL6i3dEIS-12" style="edgeStyle=orthogonalEdgeStyle;rounded=0;orthogonalLoop=1;jettySize=auto;html=1;" parent="1" source="70dgQCnBZzy21_fuu8-h-50" target="y37aQI1pMhycL6i3dEIS-5" edge="1">
          <mxGeometry relative="1" as="geometry" />
        </mxCell>
        <mxCell id="70dgQCnBZzy21_fuu8-h-50" value="&lt;font style=&quot;font-size: 18px;&quot;&gt;crm_sales_details&lt;/font&gt;" style="rounded=1;whiteSpace=wrap;html=1;fillColor=#fff2cc;gradientColor=#ffd966;strokeColor=#d6b656;fontColor=#000000;fontStyle=1" parent="1" vertex="1">
          <mxGeometry x="761" y="1117" width="190" height="40" as="geometry" />
        </mxCell>
        <mxCell id="y37aQI1pMhycL6i3dEIS-11" value="" style="edgeStyle=orthogonalEdgeStyle;rounded=0;orthogonalLoop=1;jettySize=auto;html=1;" parent="1" source="70dgQCnBZzy21_fuu8-h-51" target="70dgQCnBZzy21_fuu8-h-50" edge="1">
          <mxGeometry relative="1" as="geometry" />
        </mxCell>
        <mxCell id="y37aQI1pMhycL6i3dEIS-13" style="edgeStyle=orthogonalEdgeStyle;rounded=0;orthogonalLoop=1;jettySize=auto;html=1;" parent="1" source="70dgQCnBZzy21_fuu8-h-51" target="y37aQI1pMhycL6i3dEIS-6" edge="1">
          <mxGeometry relative="1" as="geometry" />
        </mxCell>
        <mxCell id="70dgQCnBZzy21_fuu8-h-51" value="&lt;font style=&quot;font-size: 18px;&quot;&gt;crm_cust_info&lt;/font&gt;" style="rounded=1;whiteSpace=wrap;html=1;fillColor=#fff2cc;gradientColor=#ffd966;strokeColor=#d6b656;fontColor=#000000;fontStyle=1" parent="1" vertex="1">
          <mxGeometry x="761" y="1184" width="190" height="40" as="geometry" />
        </mxCell>
        <mxCell id="y37aQI1pMhycL6i3dEIS-14" style="edgeStyle=orthogonalEdgeStyle;rounded=0;orthogonalLoop=1;jettySize=auto;html=1;" parent="1" source="70dgQCnBZzy21_fuu8-h-53" target="y37aQI1pMhycL6i3dEIS-7" edge="1">
          <mxGeometry relative="1" as="geometry" />
        </mxCell>
        <mxCell id="70dgQCnBZzy21_fuu8-h-53" value="&lt;font style=&quot;font-size: 18px;&quot;&gt;crm_prd_info&lt;/font&gt;" style="rounded=1;whiteSpace=wrap;html=1;fillColor=#fff2cc;gradientColor=#ffd966;strokeColor=#d6b656;fontColor=#000000;fontStyle=1" parent="1" vertex="1">
          <mxGeometry x="761" y="1247" width="190" height="40" as="geometry" />
        </mxCell>
        <mxCell id="y37aQI1pMhycL6i3dEIS-17" style="edgeStyle=orthogonalEdgeStyle;rounded=0;orthogonalLoop=1;jettySize=auto;html=1;entryX=0;entryY=0.5;entryDx=0;entryDy=0;" parent="1" source="70dgQCnBZzy21_fuu8-h-56" target="y37aQI1pMhycL6i3dEIS-10" edge="1">
          <mxGeometry relative="1" as="geometry" />
        </mxCell>
        <mxCell id="70dgQCnBZzy21_fuu8-h-56" value="&lt;font style=&quot;font-size: 18px;&quot;&gt;erp_px_cat_g1v2&lt;/font&gt;" style="rounded=1;whiteSpace=wrap;html=1;fillColor=#fff2cc;gradientColor=#ffd966;strokeColor=#d6b656;fontColor=#000000;fontStyle=1" parent="1" vertex="1">
          <mxGeometry x="761" y="1477" width="190" height="40" as="geometry" />
        </mxCell>
        <mxCell id="y37aQI1pMhycL6i3dEIS-16" style="edgeStyle=orthogonalEdgeStyle;rounded=0;orthogonalLoop=1;jettySize=auto;html=1;" parent="1" source="70dgQCnBZzy21_fuu8-h-57" target="y37aQI1pMhycL6i3dEIS-9" edge="1">
          <mxGeometry relative="1" as="geometry" />
        </mxCell>
        <mxCell id="70dgQCnBZzy21_fuu8-h-57" value="&lt;font style=&quot;font-size: 18px;&quot;&gt;erp_loc_a101&lt;/font&gt;" style="rounded=1;whiteSpace=wrap;html=1;fillColor=#fff2cc;gradientColor=#ffd966;strokeColor=#d6b656;fontColor=#000000;fontStyle=1" parent="1" vertex="1">
          <mxGeometry x="761" y="1414" width="190" height="40" as="geometry" />
        </mxCell>
        <mxCell id="y37aQI1pMhycL6i3dEIS-15" style="edgeStyle=orthogonalEdgeStyle;rounded=0;orthogonalLoop=1;jettySize=auto;html=1;" parent="1" source="70dgQCnBZzy21_fuu8-h-58" target="y37aQI1pMhycL6i3dEIS-8" edge="1">
          <mxGeometry relative="1" as="geometry" />
        </mxCell>
        <mxCell id="70dgQCnBZzy21_fuu8-h-58" value="&lt;font style=&quot;font-size: 18px;&quot;&gt;erp_cust_az12&lt;/font&gt;" style="rounded=1;whiteSpace=wrap;html=1;fillColor=#fff2cc;gradientColor=#ffd966;strokeColor=#d6b656;fontColor=#000000;fontStyle=1" parent="1" vertex="1">
          <mxGeometry x="761" y="1347" width="190" height="40" as="geometry" />
        </mxCell>
        <mxCell id="70dgQCnBZzy21_fuu8-h-59" style="edgeStyle=orthogonalEdgeStyle;rounded=0;orthogonalLoop=1;jettySize=auto;html=1;entryX=0;entryY=0.5;entryDx=0;entryDy=0;" parent="1" source="70dgQCnBZzy21_fuu8-h-16" target="70dgQCnBZzy21_fuu8-h-50" edge="1">
          <mxGeometry relative="1" as="geometry" />
        </mxCell>
        <mxCell id="70dgQCnBZzy21_fuu8-h-60" style="edgeStyle=orthogonalEdgeStyle;rounded=0;orthogonalLoop=1;jettySize=auto;html=1;" parent="1" source="70dgQCnBZzy21_fuu8-h-16" target="70dgQCnBZzy21_fuu8-h-51" edge="1">
          <mxGeometry relative="1" as="geometry">
            <Array as="points">
              <mxPoint x="718" y="1202" />
              <mxPoint x="718" y="1202" />
            </Array>
          </mxGeometry>
        </mxCell>
        <mxCell id="70dgQCnBZzy21_fuu8-h-61" style="edgeStyle=orthogonalEdgeStyle;rounded=0;orthogonalLoop=1;jettySize=auto;html=1;" parent="1" source="70dgQCnBZzy21_fuu8-h-16" edge="1">
          <mxGeometry relative="1" as="geometry">
            <mxPoint x="758" y="1264" as="targetPoint" />
            <Array as="points">
              <mxPoint x="674" y="1202" />
              <mxPoint x="674" y="1264" />
              <mxPoint x="758" y="1264" />
            </Array>
          </mxGeometry>
        </mxCell>
        <mxCell id="70dgQCnBZzy21_fuu8-h-62" style="edgeStyle=orthogonalEdgeStyle;rounded=0;orthogonalLoop=1;jettySize=auto;html=1;" parent="1" source="70dgQCnBZzy21_fuu8-h-19" target="70dgQCnBZzy21_fuu8-h-57" edge="1">
          <mxGeometry relative="1" as="geometry">
            <Array as="points">
              <mxPoint x="718" y="1433" />
              <mxPoint x="718" y="1433" />
            </Array>
          </mxGeometry>
        </mxCell>
        <mxCell id="70dgQCnBZzy21_fuu8-h-63" style="edgeStyle=orthogonalEdgeStyle;rounded=0;orthogonalLoop=1;jettySize=auto;html=1;entryX=0;entryY=0.5;entryDx=0;entryDy=0;" parent="1" source="70dgQCnBZzy21_fuu8-h-19" target="70dgQCnBZzy21_fuu8-h-58" edge="1">
          <mxGeometry relative="1" as="geometry" />
        </mxCell>
        <mxCell id="70dgQCnBZzy21_fuu8-h-64" style="edgeStyle=orthogonalEdgeStyle;rounded=0;orthogonalLoop=1;jettySize=auto;html=1;" parent="1" source="70dgQCnBZzy21_fuu8-h-19" edge="1">
          <mxGeometry relative="1" as="geometry">
            <mxPoint x="758" y="1494" as="targetPoint" />
            <Array as="points">
              <mxPoint x="674" y="1433" />
              <mxPoint x="674" y="1494" />
              <mxPoint x="758" y="1494" />
            </Array>
          </mxGeometry>
        </mxCell>
        <mxCell id="y37aQI1pMhycL6i3dEIS-3" value="&lt;font style=&quot;font-size: 24px; color: rgb(0, 0, 0);&quot;&gt;&lt;b&gt;Silver Layer&lt;/b&gt;&lt;/font&gt;" style="rounded=1;whiteSpace=wrap;html=1;dashed=1;fillColor=#f5f5f5;strokeColor=#666666;dashPattern=8 8;gradientColor=#b3b3b3;verticalAlign=top;" parent="1" vertex="1">
          <mxGeometry x="1027" y="1002" width="240" height="40" as="geometry" />
        </mxCell>
        <mxCell id="y37aQI1pMhycL6i3dEIS-4" value="" style="rounded=1;whiteSpace=wrap;html=1;fillColor=none;strokeColor=#666666;strokeWidth=2;gradientColor=#b3b3b3;" parent="1" vertex="1">
          <mxGeometry x="1027" y="1064" width="240" height="530" as="geometry" />
        </mxCell>
        <mxCell id="T04ib55Nddu8GwBtezhe-3" style="edgeStyle=orthogonalEdgeStyle;rounded=0;orthogonalLoop=1;jettySize=auto;html=1;" edge="1" parent="1" source="y37aQI1pMhycL6i3dEIS-5" target="T04ib55Nddu8GwBtezhe-2">
          <mxGeometry relative="1" as="geometry" />
        </mxCell>
        <mxCell id="y37aQI1pMhycL6i3dEIS-5" value="&lt;font style=&quot;font-size: 18px;&quot;&gt;crm_sales_details&lt;/font&gt;" style="rounded=1;whiteSpace=wrap;html=1;fillColor=#f5f5f5;gradientColor=#b3b3b3;strokeColor=#666666;fontColor=#000000;fontStyle=1" parent="1" vertex="1">
          <mxGeometry x="1052" y="1117" width="190" height="40" as="geometry" />
        </mxCell>
        <mxCell id="T04ib55Nddu8GwBtezhe-6" style="edgeStyle=orthogonalEdgeStyle;rounded=0;orthogonalLoop=1;jettySize=auto;html=1;jumpStyle=gap;" edge="1" parent="1" source="y37aQI1pMhycL6i3dEIS-6" target="T04ib55Nddu8GwBtezhe-5">
          <mxGeometry relative="1" as="geometry">
            <Array as="points">
              <mxPoint x="1300" y="1204" />
              <mxPoint x="1300" y="1450" />
              <mxPoint x="1445" y="1450" />
            </Array>
          </mxGeometry>
        </mxCell>
        <mxCell id="y37aQI1pMhycL6i3dEIS-6" value="&lt;font style=&quot;font-size: 18px;&quot;&gt;crm_cust_info&lt;/font&gt;" style="rounded=1;whiteSpace=wrap;html=1;fillColor=#f5f5f5;gradientColor=#b3b3b3;strokeColor=#666666;fontColor=#000000;fontStyle=1" parent="1" vertex="1">
          <mxGeometry x="1052" y="1184" width="190" height="40" as="geometry" />
        </mxCell>
        <mxCell id="T04ib55Nddu8GwBtezhe-10" style="edgeStyle=orthogonalEdgeStyle;rounded=0;orthogonalLoop=1;jettySize=auto;html=1;jumpStyle=gap;" edge="1" parent="1" source="y37aQI1pMhycL6i3dEIS-7" target="T04ib55Nddu8GwBtezhe-5">
          <mxGeometry relative="1" as="geometry">
            <Array as="points">
              <mxPoint x="1280" y="1267" />
              <mxPoint x="1280" y="1540" />
              <mxPoint x="1445" y="1540" />
            </Array>
          </mxGeometry>
        </mxCell>
        <mxCell id="y37aQI1pMhycL6i3dEIS-7" value="&lt;font style=&quot;font-size: 18px;&quot;&gt;crm_prd_info&lt;/font&gt;" style="rounded=1;whiteSpace=wrap;html=1;fillColor=#f5f5f5;gradientColor=#b3b3b3;strokeColor=#666666;fontColor=#000000;fontStyle=1" parent="1" vertex="1">
          <mxGeometry x="1052" y="1247" width="190" height="40" as="geometry" />
        </mxCell>
        <mxCell id="T04ib55Nddu8GwBtezhe-8" style="edgeStyle=orthogonalEdgeStyle;rounded=0;orthogonalLoop=1;jettySize=auto;html=1;jumpStyle=gap;" edge="1" parent="1" source="y37aQI1pMhycL6i3dEIS-8" target="T04ib55Nddu8GwBtezhe-4">
          <mxGeometry relative="1" as="geometry">
            <Array as="points">
              <mxPoint x="1147" y="1330" />
            </Array>
          </mxGeometry>
        </mxCell>
        <mxCell id="y37aQI1pMhycL6i3dEIS-8" value="&lt;font style=&quot;font-size: 18px;&quot;&gt;erp_cust_az12&lt;/font&gt;" style="rounded=1;whiteSpace=wrap;html=1;fillColor=#f5f5f5;gradientColor=#b3b3b3;strokeColor=#666666;fontColor=#000000;fontStyle=1" parent="1" vertex="1">
          <mxGeometry x="1052" y="1347" width="190" height="40" as="geometry" />
        </mxCell>
        <mxCell id="T04ib55Nddu8GwBtezhe-9" style="edgeStyle=orthogonalEdgeStyle;rounded=0;orthogonalLoop=1;jettySize=auto;html=1;jumpStyle=gap;" edge="1" parent="1" source="y37aQI1pMhycL6i3dEIS-9" target="T04ib55Nddu8GwBtezhe-4">
          <mxGeometry relative="1" as="geometry" />
        </mxCell>
        <mxCell id="y37aQI1pMhycL6i3dEIS-9" value="&lt;font style=&quot;font-size: 18px;&quot;&gt;erp_loc_a101&lt;/font&gt;" style="rounded=1;whiteSpace=wrap;html=1;fillColor=#f5f5f5;gradientColor=#b3b3b3;strokeColor=#666666;fontColor=#000000;fontStyle=1" parent="1" vertex="1">
          <mxGeometry x="1052" y="1414" width="190" height="40" as="geometry" />
        </mxCell>
        <mxCell id="T04ib55Nddu8GwBtezhe-11" style="edgeStyle=orthogonalEdgeStyle;rounded=0;orthogonalLoop=1;jettySize=auto;html=1;jumpStyle=gap;" edge="1" parent="1" source="y37aQI1pMhycL6i3dEIS-10" target="T04ib55Nddu8GwBtezhe-5">
          <mxGeometry relative="1" as="geometry" />
        </mxCell>
        <mxCell id="y37aQI1pMhycL6i3dEIS-10" value="&lt;font style=&quot;font-size: 18px;&quot;&gt;erp_px_cat_g1v2&lt;/font&gt;" style="rounded=1;whiteSpace=wrap;html=1;fillColor=#f5f5f5;gradientColor=#b3b3b3;strokeColor=#666666;fontColor=#000000;fontStyle=1" parent="1" vertex="1">
          <mxGeometry x="1052" y="1477" width="190" height="40" as="geometry" />
        </mxCell>
        <mxCell id="y37aQI1pMhycL6i3dEIS-18" value="&lt;font style=&quot;font-size: 24px; color: rgb(0, 0, 0);&quot;&gt;&lt;b&gt;Gold Layer&lt;/b&gt;&lt;/font&gt;" style="rounded=1;whiteSpace=wrap;html=1;dashed=1;fillColor=#ffcd28;strokeColor=#d79b00;dashPattern=8 8;gradientColor=#ffa500;" parent="1" vertex="1">
          <mxGeometry x="1324" y="1002" width="240" height="40" as="geometry" />
        </mxCell>
        <mxCell id="y37aQI1pMhycL6i3dEIS-19" value="" style="rounded=1;whiteSpace=wrap;html=1;fillColor=none;strokeColor=#d79b00;strokeWidth=2;gradientColor=#ffa500;" parent="1" vertex="1">
          <mxGeometry x="1324" y="1064" width="240" height="530" as="geometry" />
        </mxCell>
        <mxCell id="T04ib55Nddu8GwBtezhe-2" value="&lt;font style=&quot;font-size: 18px;&quot;&gt;fact_sales&lt;/font&gt;" style="rounded=1;whiteSpace=wrap;html=1;fillColor=#ffcd28;strokeColor=none;fontStyle=1;gradientColor=#ffa500;fontColor=#000000;" vertex="1" parent="1">
          <mxGeometry x="1350" y="1117" width="190" height="40" as="geometry" />
        </mxCell>
        <mxCell id="T04ib55Nddu8GwBtezhe-4" value="&lt;font style=&quot;font-size: 18px;&quot;&gt;dim_customers&lt;/font&gt;" style="rounded=1;whiteSpace=wrap;html=1;fillColor=#ffcd28;strokeColor=none;fontStyle=1;gradientColor=#ffa500;fontColor=#000000;" vertex="1" parent="1">
          <mxGeometry x="1350" y="1304" width="190" height="40" as="geometry" />
        </mxCell>
        <mxCell id="T04ib55Nddu8GwBtezhe-5" value="&lt;font style=&quot;font-size: 18px;&quot;&gt;dim_products&lt;/font&gt;" style="rounded=1;whiteSpace=wrap;html=1;fillColor=#ffcd28;strokeColor=none;fontStyle=1;gradientColor=#ffa500;fontColor=#000000;" vertex="1" parent="1">
          <mxGeometry x="1350" y="1476" width="190" height="40" as="geometry" />
        </mxCell>
      </root>
    </mxGraphModel>
  </diagram>
</mxfile>
